<svg xmlns="http://www.w3.org/2000/svg" viewBox="0 0 90 20"><defs><style>.cls-1{fill:#e6e6e6;}.cls-2{fill:#5a8ea2;}.cls-3{fill:#fff;fill-rule:evenodd;}</style></defs><g id="Calque_2" data-name="Calque 2"><g id="Calque_1-2" data-name="Calque 1"><rect class="cls-1" width="90" height="20" rx="10"/><path class="cls-2" d="M42.56,12.21H39.23l-.64,1.5h-1.7l3.2-7h1.64l3.21,7H43.2ZM42,11,40.9,8.3,39.76,11Z"/><path class="cls-2" d="M45.13,10.21A3.65,3.65,0,0,1,49,6.59,3.75,3.75,0,0,1,52,7.83l-1.07,1A2.32,2.32,0,0,0,49.11,8a2.18,2.18,0,0,0-2.3,2.24,2.18,2.18,0,0,0,2.3,2.24,2.3,2.3,0,0,0,1.8-.83l1.07,1a3.73,3.73,0,0,1-3,1.25A3.64,3.64,0,0,1,45.13,10.21Z"/><path class="cls-2" d="M53.1,6.71h1.66v7H53.1Z"/><path class="cls-2" d="M62,12.41v1.3H56.46v-7h5.42V8H58.11V9.53h3.33v1.26H58.11v1.62Z"/><path class="cls-2" d="M67.91,13.71l-1.39-2H65v2H63.34v-7h3.1c1.92,0,3.12,1,3.12,2.54a2.27,2.27,0,0,1-1.48,2.21l1.61,2.25ZM66.35,8H65v2.44h1.35c1,0,1.53-.46,1.53-1.22S67.37,8,66.35,8Z"/><circle class="cls-2" cx="10" cy="10" r="10"/><path class="cls-3" d="M3.15,10h0L6.6,4.1h6.84L16.85,10h0l-3.41,5.88H6.6Zm10,0A3.17,3.17,0,1,1,10,6.82,3.17,3.17,0,0,1,13.17,10Z"/></g></g></svg>