<svg xmlns="http://www.w3.org/2000/svg" viewBox="0 0 90 20"><defs><style>.cls-1{fill:#e6e6e6;}.cls-2{fill:#e0306a;}.cls-3{fill:#fefefe;}</style></defs><g id="Calque_2" data-name="Calque 2"><g id="Calque_1-2" data-name="Calque 1"><rect class="cls-1" width="90" height="20" rx="10"/><path class="cls-2" d="M30.17,10.21a3.64,3.64,0,0,1,3.89-3.62,3.77,3.77,0,0,1,3,1.24L36,8.79A2.34,2.34,0,0,0,34.14,8a2.17,2.17,0,0,0-2.29,2.24,2.17,2.17,0,0,0,2.29,2.24A2.32,2.32,0,0,0,36,11.62l1.07,1a3.75,3.75,0,0,1-3,1.25A3.64,3.64,0,0,1,30.17,10.21Z"/><path class="cls-2" d="M37.53,10.21a3.67,3.67,0,0,1,3.92-3.62,3.63,3.63,0,1,1,0,7.24A3.67,3.67,0,0,1,37.53,10.21Zm6.17,0a2.25,2.25,0,0,0-4.49,0,2.25,2.25,0,0,0,4.49,0Z"/><path class="cls-2" d="M53.16,13.71V9.51L51,13h-.75L48.19,9.6v4.11H46.63v-7H48l2.69,4.35,2.64-4.35H54.7l0,7Z"/><path class="cls-2" d="M63,11.8c0,1.21-1,1.91-2.87,1.91H56.42v-7h3.5c1.8,0,2.72.73,2.72,1.82a1.68,1.68,0,0,1-1,1.54A1.73,1.73,0,0,1,63,11.8ZM58.07,7.93V9.58h1.65c.81,0,1.25-.28,1.25-.83s-.44-.82-1.25-.82Zm3.26,3.7c0-.59-.46-.87-1.32-.87H58.07v1.73H60C60.87,12.49,61.33,12.23,61.33,11.63Z"/><path class="cls-2" d="M69,12.21H65.65L65,13.71H63.31l3.2-7h1.64l3.21,7H69.62ZM68.46,11,67.32,8.3,66.19,11Z"/><path class="cls-2" d="M73.24,8h-2.3V6.71h6.25V8H74.9v5.68H73.24Z"/><circle class="cls-2" cx="10" cy="10" r="10"/><path class="cls-3" d="M11,14.66H6.26c-.32,0-.46-.08-.46-.45V6a.48.48,0,0,1,0-.12.3.3,0,0,1,.32-.32h.45c.25,0,.5,0,.75,0s.47.14.47.45c0,.75,0,1.49,0,2.23v.47c0,.27.1.36.36.36H8.3a.28.28,0,0,0,.29-.3V5.86c0-.23.12-.33.35-.34h1.28c.25,0,.35.11.35.36,0,.89,0,1.79,0,2.68a1.61,1.61,0,0,0,0,.22.28.28,0,0,0,.28.25h.26a.28.28,0,0,0,.28-.27,1.34,1.34,0,0,0,0-.2V6a.85.85,0,0,1,0-.16c0-.24.11-.35.36-.35H13c.25,0,.36.11.36.36v2.7a1.48,1.48,0,0,0,0,.21.28.28,0,0,0,.29.27h.25a.28.28,0,0,0,.28-.26,1.47,1.47,0,0,0,0-.21V5.86c0-.23.11-.34.34-.34h1.3a.31.31,0,0,1,.35.34V6c0,2.73,0,5.46,0,8.19v.2a.29.29,0,0,1-.3.28H11Z"/><path class="cls-3" d="M5.14,11.44v3a.3.3,0,0,1-.28.28H4.72a.47.47,0,0,1-.51-.3c-.3-.64-.64-1.26-1-1.89a.74.74,0,0,1-.09-.36V10.74a.64.64,0,0,1,.08-.36c.35-.66.69-1.33,1-2a.31.31,0,0,1,.32-.2h.28a.31.31,0,0,1,.29.3v2.95Z"/></g></g></svg>