<svg xmlns="http://www.w3.org/2000/svg" viewBox="0 0 90 20"><defs><style>.cls-1{fill:#e6e6e6;}.cls-2{fill:#006fc9;}.cls-3{fill:#fefefe;}</style></defs><g id="Calque_2" data-name="Calque 2"><g id="Calque_1-2" data-name="Calque 1"><rect class="cls-1" width="90" height="20" rx="10"/><path class="cls-2" d="M30.06,6.71h3.26c2.35,0,4,1.38,4,3.5s-1.61,3.5-4,3.5H30.06Zm3.18,5.67a2.12,2.12,0,0,0,2.36-2.17A2.12,2.12,0,0,0,33.24,8H31.72v4.34Z"/><path class="cls-2" d="M43.1,13.71l-1.39-2H40.19v2H38.52v-7h3.11c1.92,0,3.12,1,3.12,2.54a2.27,2.27,0,0,1-1.48,2.21l1.61,2.25ZM41.54,8H40.19v2.44h1.35c1,0,1.53-.46,1.53-1.22S42.55,8,41.54,8Z"/><path class="cls-2" d="M50.79,12.21H47.45l-.63,1.5h-1.7l3.19-7H50l3.2,7H51.42ZM50.26,11,49.13,8.3,48,11Z"/><path class="cls-2" d="M58.66,10.1h1.51v2.84a5,5,0,0,1-2.9.89,3.63,3.63,0,1,1,0-7.24,3.89,3.89,0,0,1,3,1.21l-1.07,1A2.45,2.45,0,0,0,57.39,8,2.18,2.18,0,0,0,55,10.21a2.19,2.19,0,0,0,2.33,2.24,2.69,2.69,0,0,0,1.29-.3Z"/><path class="cls-2" d="M61.26,10.21a3.94,3.94,0,1,1,3.93,3.62A3.67,3.67,0,0,1,61.26,10.21Zm6.17,0a2.25,2.25,0,0,0-4.49,0,2.25,2.25,0,0,0,4.49,0Z"/><path class="cls-2" d="M76.94,6.71v7H75.58L72,9.46v4.25H70.36v-7h1.37L75.3,11V6.71Z"/><circle class="cls-2" cx="10" cy="10" r="10"/><path class="cls-3" d="M9.92,14.27a2.76,2.76,0,0,0,2.7-1.61,2.88,2.88,0,0,0-1.19-3.79l-.09,0c-.13,0-.16-.12-.14-.25a3,3,0,0,0,0-.43,1.67,1.67,0,0,0-.4-1,.1.1,0,0,0-.05,0,0,0,0,0,0,0,0A2.18,2.18,0,0,1,11,8.31a1,1,0,0,1-.13.47.59.59,0,0,1-.47.35c-1.34.23-2.65.56-4,.89-.91.23-1.83.44-2.74.66l-.11,0h0a.07.07,0,0,1,0-.06.41.41,0,0,1,.05-.09c.72-1.12,1.36-2.27,2-3.45a1,1,0,0,1,.31-.34C6.92,6,8,5.24,8.94,4.39a16.57,16.57,0,0,0,2.2-2.31L11.23,2l0,0s0,0,0,.05l0,.17a8.63,8.63,0,0,1-.89,2.41c-.16.29-.15.29.18.3a6.1,6.1,0,0,1,2.94,11.35,6,6,0,0,1-1.15.53.42.42,0,0,1-.33,0,5.32,5.32,0,0,1-1.31-.89,6.62,6.62,0,0,1-1.17-1.36l-.07-.12c0-.06,0-.09,0-.09Zm-2-7,0-.34a.29.29,0,0,0,0-.09.06.06,0,0,0-.09,0l-.09.06A7.48,7.48,0,0,0,5.93,8.57c-.08.1-.06.12.07.13a2.18,2.18,0,0,0,1.51-.53A1.07,1.07,0,0,0,7.89,7.25Z"/><path class="cls-3" d="M9.64,16.88A10.72,10.72,0,0,1,8,16.56a6,6,0,0,1-2.32-1.37A6.55,6.55,0,0,1,3.71,12c0-.14,0-.15.11-.16a17.06,17.06,0,0,0,2.74-.47,14.77,14.77,0,0,0,1.55-.51l.2-.08h0s0,0,0,.06L8.27,11l-.24.4a3.27,3.27,0,0,0-.37,2.23,4.43,4.43,0,0,0,1.53,2.7l.64.54s.05,0,0,.06H9.81Z"/></g></g></svg>