<svg xmlns="http://www.w3.org/2000/svg" viewBox="0 0 90 20"><defs><style>.cls-1{fill:#e6e6e6;}.cls-2{fill:#3692dc;}.cls-3{fill:#fefefe;}</style></defs><g id="Calque_2" data-name="Calque 2"><g id="Calque_1-2" data-name="Calque 1"><rect class="cls-1" width="90" height="20" rx="10"/><path class="cls-2" d="M48.58,12.41v1.3H43v-7h5.43V8H44.68V9.53H48v1.26H44.68v1.62Z"/><path class="cls-2" d="M54.63,12.21H51.3l-.64,1.5H49l3.2-7H53.8l3.21,7H55.27ZM54.11,11,53,8.3,51.83,11Z"/><path class="cls-2" d="M57.54,10.63V6.71H59.2v3.86c0,1.33.59,1.88,1.6,1.88s1.6-.55,1.6-1.88V6.71H64v3.92a2.94,2.94,0,0,1-3.25,3.2A2.94,2.94,0,0,1,57.54,10.63Z"/><circle class="cls-2" cx="10" cy="10" r="10"/><path class="cls-3" d="M10,16.84a4.81,4.81,0,0,1-4.72-3.76,4.91,4.91,0,0,1,.24-2.81,23,23,0,0,1,2-4C8.29,5.18,9,4.08,9.7,3c.09-.13.16-.26.24-.38s.08-.07.12,0l0,.05c.76,1.24,1.58,2.44,2.34,3.68a23.2,23.2,0,0,1,1.83,3.49,6.61,6.61,0,0,1,.47,1.49,4.79,4.79,0,0,1-4.41,5.53Zm-.3-1.5A2.78,2.78,0,0,0,11.12,15a2.52,2.52,0,0,0,1.34-2.17c0-.07,0-.2,0-.21s-.1.11-.14.17a2.47,2.47,0,0,1-2.14,1.32,2.52,2.52,0,0,1-2.61-2.56.86.86,0,0,0,0-.16s0-.05,0-.05,0,0-.07,0a.22.22,0,0,0,0,.08A2.38,2.38,0,0,0,7.35,14,2.67,2.67,0,0,0,9.74,15.34Z"/></g></g></svg>