<svg xmlns="http://www.w3.org/2000/svg" viewBox="0 0 90 20"><defs><style>.cls-1{fill:#e6e6e6;}.cls-2{fill:#fbd100;}.cls-3{fill:#fff;fill-rule:evenodd;}</style></defs><g id="Calque_2" data-name="Calque 2"><g id="Calque_1-2" data-name="Calque 1"><rect class="cls-1" width="90" height="20" rx="10"/><path class="cls-2" d="M37.53,12.41v1.3H32v-7H37.4V8H33.62V9.53H37v1.26H33.62v1.62ZM35,6.14H33.75l1.39-1.43h1.72Z"/><path class="cls-2" d="M38.85,6.71h1.66v5.68h3.6v1.32H38.85Z"/><path class="cls-2" d="M50.6,12.41v1.3H45v-7h5.42V8H46.69V9.53H50v1.26H46.69v1.62Z"/><path class="cls-2" d="M53.4,8H51.11V6.71h6.25V8h-2.3v5.68H53.4Z"/><path class="cls-2" d="M62.82,13.71l-1.38-2H59.91v2H58.25v-7h3.11c1.92,0,3.11,1,3.11,2.54A2.27,2.27,0,0,1,63,11.46l1.61,2.25ZM61.27,8H59.91v2.44h1.36c1,0,1.52-.46,1.52-1.22S62.28,8,61.27,8Z"/><path class="cls-2" d="M65.78,6.71h1.67v7H65.78Z"/><path class="cls-2" d="M71.76,11l-1,1v1.77H69.15v-7H70.8V10L74,6.71h1.84l-3,3.12L76,13.71H74.06Z"/><circle class="cls-2" cx="10" cy="10" r="10"/><polygon class="cls-3" points="14.39 10.89 12.16 4 7.35 4 8.65 7.87 4.95 7.87 12.22 16.5 10.8 10.89 14.39 10.89"/></g></g></svg>