<svg xmlns="http://www.w3.org/2000/svg" viewBox="0 0 90 20"><defs><style>.cls-1{fill:#e6e6e6;}.cls-2{fill:#fb89eb;}.cls-3{fill:#fff;fill-rule:evenodd;}</style></defs><g id="Calque_2" data-name="Calque 2"><g id="Calque_1-2" data-name="Calque 1"><rect class="cls-1" width="90" height="20" rx="10"/><path class="cls-2" d="M45.86,8V9.86h3.32v1.3H45.86v2.55H44.2v-7h5.42V8Z"/><path class="cls-2" d="M56.31,12.41v1.3H50.75v-7h5.42V8H52.4V9.53h3.33v1.26H52.4v1.62ZM53.78,6.14H52.53l1.39-1.43h1.72Z"/><path class="cls-2" d="M63.18,12.41v1.3H57.63v-7h5.42V8H59.28V9.53h3.33v1.26H59.28v1.62Z"/><circle class="cls-2" cx="10" cy="10" r="10"/><path class="cls-3" d="M5.59,14.32,8,13.63l2,3.73s0,0,0,0l2-3.73,2.36.69h0L13.73,12l3.63-2s0,0,0,0L13.7,8l.72-2.42s0,0,0,0L12,6.27,10,2.64s0,0,0,0L8,6.27l-2.42-.7s0,0,0,0L6.3,8,2.64,10s0,0,0,0l3.63,2-.69,2.32ZM7.42,10l1.68.91L10,12.62h0l.91-1.68L12.62,10v0L10.94,9.1,10,7.42h0L9.1,9.1,7.42,10Z"/></g></g></svg>