<svg xmlns="http://www.w3.org/2000/svg" viewBox="0 0 90 20"><defs><style>.cls-1{fill:#e6e6e6;}.cls-2{fill:#ff9741;}.cls-3{fill:#fefefe;}</style></defs><g id="Calque_2" data-name="Calque 2"><g id="Calque_1-2" data-name="Calque 1"><rect class="cls-1" width="90" height="20" rx="10"/><path class="cls-2" d="M45.26,8V9.86h3.32v1.3H45.26v2.55H43.6v-7H49V8Z"/><path class="cls-2" d="M55.71,12.41v1.3H50.15v-7h5.42V8H51.8V9.53h3.33v1.26H51.8v1.62Z"/><path class="cls-2" d="M57,10.63V6.71h1.67v3.86c0,1.33.59,1.88,1.6,1.88s1.6-.55,1.6-1.88V6.71h1.64v3.92a2.94,2.94,0,0,1-3.25,3.2A2.94,2.94,0,0,1,57,10.63Z"/><circle class="cls-2" cx="10" cy="10" r="10"/><path class="cls-3" d="M14.52,14.77a.28.28,0,0,1-.09.17A4.21,4.21,0,0,1,12,16.72,6.3,6.3,0,0,1,9.8,17a5.55,5.55,0,0,1-4.45-2.44A5.2,5.2,0,0,1,4.5,12a8.25,8.25,0,0,1,.63-3.61L5.28,8S5.3,8,5.35,8s0,0,0,.08v.22a8.78,8.78,0,0,0,.35,2.65,6.65,6.65,0,0,0,.33.84s0,.07.07.06,0-.05,0-.08a8.57,8.57,0,0,1-.07-1.13A5.14,5.14,0,0,1,7.44,6.75a6.63,6.63,0,0,1,.92-.83,5.08,5.08,0,0,0,.75-.64,2.48,2.48,0,0,0,.67-1.63,4.33,4.33,0,0,0-.11-1.14.68.68,0,0,0,0-.14.23.23,0,0,1,0,0h.06s0,0,0,0a6.3,6.3,0,0,1,1.43,1.78,3.63,3.63,0,0,1,.4,2c0,.22,0,.22-.23.28A1.56,1.56,0,0,0,10.27,8a1.54,1.54,0,0,0,1.12,1.42,1.52,1.52,0,0,0,1.86-1.11,2.08,2.08,0,0,0,0-1A3.89,3.89,0,0,0,13,6.63s0-.09,0-.12.08,0,.12,0a4.49,4.49,0,0,1,2,2.17,4.55,4.55,0,0,1-.56,4.69,3.32,3.32,0,0,1-2.85,1.38,3,3,0,0,1-.42,0s-.09,0-.1,0,0-.06.05-.08l.14-.11a2.09,2.09,0,0,0,.68-2.12,2,2,0,0,0-1.51-1.58,2.06,2.06,0,0,0-2.47,1.46,2.16,2.16,0,0,0,.47,2.08,3.4,3.4,0,0,0,2.4,1.23,5.87,5.87,0,0,0,2.69-.44c.3-.11.59-.26.89-.39Z"/></g></g></svg>