<svg xmlns="http://www.w3.org/2000/svg" viewBox="0 0 90 20"><defs><style>.cls-1{fill:#e6e6e6;}.cls-2{fill:#4cd1c0;}.cls-3{fill:#fff;}</style></defs><g id="Calque_2" data-name="Calque 2"><g id="Calque_1-2" data-name="Calque 1"><rect class="cls-1" width="90" height="20" rx="10"/><path class="cls-2" d="M41.05,10.1h1.52v2.84a5,5,0,0,1-2.9.89,3.63,3.63,0,1,1,0-7.24,3.86,3.86,0,0,1,3,1.21l-1.06,1A2.46,2.46,0,0,0,39.78,8a2.19,2.19,0,0,0-2.35,2.24,2.19,2.19,0,0,0,2.33,2.24,2.69,2.69,0,0,0,1.29-.3Z"/><path class="cls-2" d="M44.11,6.71h1.66v5.68h3.6v1.32H44.11Z"/><path class="cls-2" d="M55.09,12.21H51.75l-.63,1.5h-1.7l3.2-7h1.64l3.2,7H55.72ZM54.56,11,53.42,8.3,52.29,11Z"/><path class="cls-2" d="M57.66,10.21a3.64,3.64,0,0,1,3.89-3.62,3.77,3.77,0,0,1,3,1.24l-1.07,1A2.34,2.34,0,0,0,61.63,8a2.17,2.17,0,0,0-2.29,2.24,2.17,2.17,0,0,0,2.29,2.24,2.32,2.32,0,0,0,1.81-.83l1.07,1a3.75,3.75,0,0,1-3,1.25A3.64,3.64,0,0,1,57.66,10.21Z"/><path class="cls-2" d="M71.18,12.41v1.3H65.62v-7H71V8H67.27V9.53H70.6v1.26H67.27v1.62Z"/><circle class="cls-2" cx="10" cy="10" r="10"/><polygon class="cls-3" points="6.09 8.26 9.66 10 6.09 11.74 2.51 10 6.09 8.26"/><polygon class="cls-3" points="13.91 8.26 10.34 10 13.91 11.74 17.49 10 13.91 8.26"/><polygon class="cls-3" points="13.91 3.79 10.34 5.67 10.34 9.36 10.37 9.34 10.37 9.34 10.42 9.32 13.91 7.58 13.91 7.58 13.91 7.58 13.91 3.79"/><polygon class="cls-3" points="13.91 16.21 10.34 14.33 10.34 10.64 10.37 10.66 10.37 10.66 10.42 10.68 13.91 12.42 13.91 12.42 13.91 12.42 13.91 16.21"/><polygon class="cls-3" points="6.09 3.79 9.66 5.67 9.66 9.36 9.63 9.34 9.63 9.34 9.58 9.32 6.09 7.58 6.09 7.58 6.09 7.58 6.09 3.79"/><polygon class="cls-3" points="6.09 16.21 9.66 14.33 9.66 10.64 9.63 10.66 9.63 10.66 9.58 10.68 6.09 12.42 6.09 12.42 6.09 12.42 6.09 16.21"/></g></g></svg>