<svg xmlns="http://www.w3.org/2000/svg" viewBox="0 0 90 20"><defs><style>.cls-1{fill:#e6e6e6;}.cls-2{fill:#68998c;}.cls-3{fill:#fff;}</style></defs><g id="Calque_2" data-name="Calque 2"><g id="Calque_1-2" data-name="Calque 1"><rect class="cls-1" width="90" height="20" rx="10"/><path class="cls-2" d="M28.2,6.71h1.66v7H28.2Z"/><path class="cls-2" d="M38.15,6.71v7H36.78L33.21,9.46v4.25H31.57v-7h1.37L36.51,11V6.71Z"/><path class="cls-2" d="M39.4,10.21a3.64,3.64,0,0,1,3.89-3.62,3.77,3.77,0,0,1,3,1.24l-1.07,1A2.34,2.34,0,0,0,43.37,8a2.17,2.17,0,0,0-2.29,2.24,2.17,2.17,0,0,0,2.29,2.24,2.32,2.32,0,0,0,1.81-.83l1.07,1a3.75,3.75,0,0,1-3,1.25A3.64,3.64,0,0,1,39.4,10.21Z"/><path class="cls-2" d="M46.76,10.21a3.94,3.94,0,1,1,3.92,3.62A3.67,3.67,0,0,1,46.76,10.21Zm6.17,0a2.25,2.25,0,0,0-4.49,0,2.25,2.25,0,0,0,4.49,0Z"/><path class="cls-2" d="M62.44,6.71v7H61.08L57.5,9.46v4.25H55.86v-7h1.37L60.8,11V6.71Z"/><path class="cls-2" d="M70.72,6.71v7H69.36L65.78,9.46v4.25H64.14v-7h1.37L69.08,11V6.71Z"/><path class="cls-2" d="M72.36,10.63V6.71H74v3.86c0,1.33.6,1.88,1.6,1.88s1.6-.55,1.6-1.88V6.71h1.64v3.92a3.25,3.25,0,0,1-6.5,0Z"/><circle class="cls-2" cx="10" cy="10" r="10"/><path class="cls-3" d="M10.81,8.7c0-.49-.44-.8-1.11-.8a1.75,1.75,0,0,0-1.49.74L7,7.93a3.29,3.29,0,0,1,2.9-1.34c1.54,0,2.61.67,2.61,1.85,0,1.6-1.73,1.78-1.73,2.84H9.21C9.21,9.88,10.81,9.57,10.81,8.7ZM9,12.88A.91.91,0,0,1,10,12a.91.91,0,0,1,1,.89.93.93,0,0,1-1,.91A.93.93,0,0,1,9,12.88Z"/></g></g></svg>