<svg xmlns="http://www.w3.org/2000/svg" viewBox="0 0 90 20"><defs><style>.cls-1{fill:#e6e6e6;}.cls-2{fill:#83c300;}.cls-3{fill:#fefefe;}</style></defs><g id="Calque_2" data-name="Calque 2"><g id="Calque_1-2" data-name="Calque 1"><rect class="cls-1" width="90" height="20" rx="10"/><circle class="cls-2" cx="10" cy="10" r="10"/><path class="cls-3" d="M10.42,11.17a7.46,7.46,0,0,1,.51-2.7.25.25,0,0,1,.18-.15,2.84,2.84,0,0,0,.57-.16,5,5,0,0,0,2-1.37l.09-.09c.13-.13.13-.14.26,0A5.77,5.77,0,0,1,12.58,16l-.21.1c-.16.07-.16.07-.28-.07a6.76,6.76,0,0,1-1.6-3.65A10.08,10.08,0,0,1,10.42,11.17Z"/><path class="cls-3" d="M9.6,11.12A8.54,8.54,0,0,1,9,14.33,7,7,0,0,1,7.9,16c-.11.13-.11.13-.27.06a5.73,5.73,0,0,1-2.89-2.87,5.65,5.65,0,0,1-.51-2.75A5.74,5.74,0,0,1,5.92,6.71l0,0c.12-.11.12-.11.23,0a6,6,0,0,0,1.07.94,4.73,4.73,0,0,0,1.58.68.32.32,0,0,1,.27.24,8.79,8.79,0,0,1,.44,1.82C9.57,10.66,9.59,11,9.6,11.12Z"/><path class="cls-3" d="M10,7.36A3.86,3.86,0,0,1,7.05,6c-.12-.12-.11-.13,0-.21A4.85,4.85,0,0,1,8,5.37l.2-.07c.1,0,.1-.06,0-.15A.76.76,0,0,0,8.19,5L7.39,4l-.12-.17A.39.39,0,0,1,7.4,3.3a.37.37,0,0,1,.48.05s.1.12.15.18l1,1.4a.27.27,0,0,0,.3.13,4.57,4.57,0,0,1,1.28,0,.28.28,0,0,0,.3-.13L12,3.49l.12-.14a.38.38,0,0,1,.61.44.91.91,0,0,1-.11.16L11.82,5l-.08.1c-.08.12-.08.13,0,.17l.18.07a5.46,5.46,0,0,1,.95.44c.15.09.15.09,0,.21A3.85,3.85,0,0,1,10,7.36Z"/><path class="cls-2" d="M31.5,6.71h1.67v7H31.5Z"/><path class="cls-2" d="M41.45,6.71v7H40.08L36.51,9.46v4.25H34.87v-7h1.37L39.81,11V6.71Z"/><path class="cls-2" d="M42.58,13l.57-1.22a4.29,4.29,0,0,0,2.37.73c1,0,1.38-.32,1.38-.75,0-1.31-4.17-.41-4.17-3,0-1.19,1-2.18,3-2.18a4.89,4.89,0,0,1,2.49.62l-.51,1.23a4.13,4.13,0,0,0-2-.55c-1,0-1.36.36-1.36.8,0,1.29,4.17.4,4.17,3,0,1.17-1,2.17-3,2.17A5.24,5.24,0,0,1,42.58,13Z"/><path class="cls-2" d="M55.24,12.41v1.3H49.69v-7h5.42V8H51.34V9.53h3.33v1.26H51.34v1.62Z"/><path class="cls-2" d="M56.09,10.21A3.65,3.65,0,0,1,60,6.59a3.73,3.73,0,0,1,2.95,1.24l-1.06,1A2.35,2.35,0,0,0,60.07,8a2.17,2.17,0,0,0-2.29,2.24,2.17,2.17,0,0,0,2.29,2.24,2.33,2.33,0,0,0,1.81-.83l1.06,1a3.71,3.71,0,0,1-3,1.25A3.64,3.64,0,0,1,56.09,10.21Z"/><path class="cls-2" d="M65.47,8H63.18V6.71h6.25V8h-2.3v5.68H65.47Z"/><path class="cls-2" d="M75.88,12.41v1.3H70.32v-7h5.42V8H72V9.53H75.3v1.26H72v1.62Z"/></g></g></svg>