<svg xmlns="http://www.w3.org/2000/svg" viewBox="0 0 90 20"><defs><style>.cls-1{fill:#e6e6e6;}.cls-2{fill:#919aa2;}.cls-3{fill:#fff;fill-rule:evenodd;}</style></defs><g id="Calque_2" data-name="Calque 2"><g id="Calque_1-2" data-name="Calque 1"><rect class="cls-1" width="90" height="20" rx="10"/><path class="cls-2" d="M36.79,6.71v7H35.42L31.84,9.46v4.25H30.2v-7h1.38L35.14,11V6.71Z"/><path class="cls-2" d="M38,10.21A3.67,3.67,0,0,1,42,6.59a3.63,3.63,0,1,1,0,7.24A3.67,3.67,0,0,1,38,10.21Zm6.18,0a2.25,2.25,0,0,0-4.5,0,2.25,2.25,0,0,0,4.5,0Z"/><path class="cls-2" d="M51.71,13.71l-1.39-2H48.8v2H47.13v-7h3.11c1.92,0,3.12,1,3.12,2.54a2.27,2.27,0,0,1-1.48,2.21l1.61,2.25ZM50.15,8H48.8v2.44h1.35c1,0,1.53-.46,1.53-1.22S51.17,8,50.15,8Z"/><path class="cls-2" d="M61.2,13.71V9.51L59.08,13h-.75L56.23,9.6v4.11H54.67v-7H56l2.69,4.35,2.65-4.35h1.36l0,7Z"/><path class="cls-2" d="M69.18,12.21H65.85l-.63,1.5H63.51l3.2-7h1.64l3.21,7H69.82ZM68.66,11,67.52,8.3,66.38,11Z"/><path class="cls-2" d="M72.31,6.71H74v5.68h3.6v1.32H72.31Z"/><circle class="cls-2" cx="10" cy="10" r="10"/><path class="cls-3" d="M16.27,10A6.25,6.25,0,1,1,10,3.77,6.24,6.24,0,0,1,16.27,10ZM14,10A3.95,3.95,0,1,1,10,6.05,3.94,3.94,0,0,1,14,10Z"/></g></g></svg>