<svg xmlns="http://www.w3.org/2000/svg" viewBox="0 0 90 20"><defs><style>.cls-1{fill:#e6e6e6;}.cls-2{fill:#45454a;}</style></defs><g id="Calque_2" data-name="Calque 2"><g id="Calque_1-2" data-name="Calque 1"><rect class="cls-1" width="90" height="20" rx="10"/><path class="cls-2" d="M30.85,10.21a3.67,3.67,0,0,1,3.93-3.62,3.63,3.63,0,1,1,0,7.24A3.67,3.67,0,0,1,30.85,10.21Zm6.18,0a2.25,2.25,0,0,0-4.5,0,2.25,2.25,0,0,0,4.5,0Z"/><path class="cls-2" d="M46.54,11.8c0,1.21-1,1.91-2.87,1.91H40v-7h3.5c1.8,0,2.72.73,2.72,1.82a1.68,1.68,0,0,1-1,1.54A1.73,1.73,0,0,1,46.54,11.8ZM41.61,7.93V9.58h1.65c.81,0,1.25-.28,1.25-.83s-.44-.82-1.25-.82Zm3.26,3.7c0-.59-.46-.87-1.33-.87H41.61v1.73h1.93C44.41,12.49,44.87,12.23,44.87,11.63Z"/><path class="cls-2" d="M47.23,13l.57-1.22a4.27,4.27,0,0,0,2.37.73c1,0,1.38-.32,1.38-.75,0-1.31-4.17-.41-4.17-3,0-1.19,1-2.18,3-2.18a4.89,4.89,0,0,1,2.49.62l-.51,1.23a4.13,4.13,0,0,0-2-.55c-1,0-1.36.36-1.36.8,0,1.29,4.17.4,4.17,3,0,1.17-1,2.17-3.05,2.17A5.23,5.23,0,0,1,47.23,13Z"/><path class="cls-2" d="M53.88,10.21a3.65,3.65,0,0,1,3.9-3.62,3.73,3.73,0,0,1,2.95,1.24l-1.06,1A2.34,2.34,0,0,0,57.86,8a2.17,2.17,0,0,0-2.29,2.24,2.17,2.17,0,0,0,2.29,2.24,2.32,2.32,0,0,0,1.81-.83l1.06,1a3.71,3.71,0,0,1-3,1.25A3.64,3.64,0,0,1,53.88,10.21Z"/><path class="cls-2" d="M61.72,10.63V6.71h1.67v3.86c0,1.33.59,1.88,1.6,1.88s1.6-.55,1.6-1.88V6.71h1.64v3.92A2.94,2.94,0,0,1,65,13.83,2.94,2.94,0,0,1,61.72,10.63Z"/><path class="cls-2" d="M74.44,13.71l-1.39-2H71.53v2H69.86v-7H73c1.92,0,3.12,1,3.12,2.54a2.28,2.28,0,0,1-1.48,2.21l1.61,2.25ZM72.88,8H71.53v2.44h1.35c1,0,1.53-.46,1.53-1.22S73.89,8,72.88,8Z"/><circle class="cls-2" cx="10" cy="10" r="10"/></g></g></svg>