<svg xmlns="http://www.w3.org/2000/svg" viewBox="0 0 90 20"><defs><style>.cls-1{fill:#e6e6e6;}.cls-2{fill:#38bf4b;}.cls-3{fill:#fefefe;}</style></defs><g id="Calque_2" data-name="Calque 2"><g id="Calque_1-2" data-name="Calque 1"><rect class="cls-1" width="90" height="20" rx="10"/><path class="cls-2" d="M39.08,9.25c0,1.56-1.2,2.53-3.12,2.53H34.51v1.93H32.85v-7H36C37.88,6.71,39.08,7.68,39.08,9.25Zm-1.69,0c0-.77-.51-1.22-1.52-1.22H34.51v2.43h1.36C36.88,10.46,37.39,10,37.39,9.25Z"/><path class="cls-2" d="M40.25,6.71h1.66v5.68h3.6v1.32H40.25Z"/><path class="cls-2" d="M51.23,12.21H47.9l-.64,1.5h-1.7l3.2-7H50.4l3.21,7H51.87ZM50.71,11,49.57,8.3,48.43,11Z"/><path class="cls-2" d="M60.94,6.71v7H59.58L56,9.46v4.25H54.36v-7h1.37L59.3,11V6.71Z"/><path class="cls-2" d="M64.13,8h-2.3V6.71h6.25V8H65.79v5.68H64.13Z"/><path class="cls-2" d="M74.53,12.41v1.3H69v-7H74.4V8H70.62V9.53H74v1.26H70.62v1.62Z"/><circle class="cls-2" cx="10" cy="10" r="10"/><path class="cls-3" d="M10.72,13H9c-.06,0-.1,0,0-.09l.06-.1c.43-.7.87-1.39,1.3-2.08a.35.35,0,0,1,.29-.2c.85-.08,1.7-.18,2.56-.28l.14,0a.19.19,0,0,0,0-.38.78.78,0,0,0-.21,0l-1.79-.22c-.31,0-.24-.05-.13-.24.58-.91,1.15-1.83,1.72-2.75L13,6.37a.41.41,0,0,0,.05-.18A.18.18,0,0,0,12.79,6a.79.79,0,0,0-.22.19L10.33,8.59c-.21.22-.18.22-.29-.06C9.82,8,9.6,7.43,9.39,6.89A1.11,1.11,0,0,0,9.3,6.7a.24.24,0,0,0-.24-.13.23.23,0,0,0-.14.23.77.77,0,0,0,0,.15c.11.83.23,1.66.36,2.48a.41.41,0,0,1-.13.39c-.56.58-1.11,1.17-1.66,1.75l-.08.09c-.08.08-.09.07-.12,0L6.86,9.94,6.47,8.42a.5.5,0,0,0-.13-.26A.19.19,0,0,0,6,8.24a.41.41,0,0,0,0,.22l.15,1.6L6.34,12l.06.6a.25.25,0,0,1-.07.22c-.4.42-.79.84-1.19,1.25-.1.11-.11.11-.2,0A5.09,5.09,0,0,1,3.77,11.8a5.62,5.62,0,0,1,.84-4.62A5.33,5.33,0,0,1,6.26,5.66,12.62,12.62,0,0,1,10,4.19a21.13,21.13,0,0,1,3-.52,15.72,15.72,0,0,1,1.68-.06c.16,0,.16,0,.2.15a16.76,16.76,0,0,1,.36,1.71,21.84,21.84,0,0,1,.26,4.12,9.66,9.66,0,0,1-.33,2.51,6.67,6.67,0,0,1-1,2.07,5,5,0,0,1-2.92,2,5.62,5.62,0,0,1-3.95-.33l-.13-.06s0,0,0-.09l.06-.1c.27-.45.55-.88.82-1.33a.36.36,0,0,1,.28-.18l2.91-.45,1.09-.18a.65.65,0,0,0,.2-.05.23.23,0,0,0,.16-.22.22.22,0,0,0-.17-.19.5.5,0,0,0-.24,0Z"/></g></g></svg>