<svg xmlns="http://www.w3.org/2000/svg" viewBox="0 0 90 20"><defs><style>.cls-1{fill:#e6e6e6;}.cls-2{fill:#b567ce;}.cls-3{fill:#fefefe;}</style></defs><g id="Calque_2" data-name="Calque 2"><g id="Calque_1-2" data-name="Calque 1"><rect class="cls-1" width="90" height="20" rx="10"/><path class="cls-2" d="M39.08,9.25c0,1.56-1.2,2.53-3.12,2.53H34.52v1.93H32.86v-7H36C37.88,6.71,39.08,7.68,39.08,9.25Zm-1.68,0c0-.77-.51-1.22-1.53-1.22H34.52v2.43h1.35C36.89,10.46,37.4,10,37.4,9.25Z"/><path class="cls-2" d="M39.91,10.21a3.67,3.67,0,0,1,3.93-3.62,3.63,3.63,0,1,1,0,7.24A3.67,3.67,0,0,1,39.91,10.21Zm6.17,0a2.25,2.25,0,0,0-4.49,0,2.25,2.25,0,0,0,4.49,0Z"/><path class="cls-2" d="M49,6.71h1.66v7H49Z"/><path class="cls-2" d="M51.81,13l.56-1.22a4.32,4.32,0,0,0,2.37.73c1,0,1.39-.32,1.39-.75,0-1.31-4.18-.41-4.18-3,0-1.19,1-2.18,3-2.18a4.92,4.92,0,0,1,2.49.62L57,8.44a4.16,4.16,0,0,0-2-.55c-1,0-1.37.36-1.37.8,0,1.29,4.18.4,4.18,3,0,1.17-1,2.17-3.05,2.17A5.21,5.21,0,0,1,51.81,13Z"/><path class="cls-2" d="M58.46,10.21a3.94,3.94,0,1,1,3.93,3.62A3.67,3.67,0,0,1,58.46,10.21Zm6.17,0a2.25,2.25,0,0,0-4.49,0,2.25,2.25,0,0,0,4.49,0Z"/><path class="cls-2" d="M74.15,6.71v7H72.78L69.21,9.46v4.25H67.56v-7h1.38L72.51,11V6.71Z"/><circle class="cls-2" cx="10" cy="10" r="10"/><path class="cls-3" d="M10.07,3.52A7.33,7.33,0,0,1,14.58,5a5.4,5.4,0,0,1,1.9,2.59,4.84,4.84,0,0,1-.7,4.5,5.37,5.37,0,0,1-1.14,1.19.29.29,0,0,0-.12.35,2.6,2.6,0,0,1-.13,1.78,1.79,1.79,0,0,1-.62.79,1.24,1.24,0,0,1-1.49,0,2,2,0,0,1-.67-.92c0-.06,0-.18-.09-.18s-.07.12-.09.18a1.87,1.87,0,0,1-.62.82A1.38,1.38,0,0,1,9.06,16a1.77,1.77,0,0,1-.5-.75s0-.09-.05-.13,0,0-.06,0a.87.87,0,0,0-.07.17,2.11,2.11,0,0,1-.49.76,1.27,1.27,0,0,1-1.85,0,2.2,2.2,0,0,1-.64-1.42,2.61,2.61,0,0,1,.09-1,.21.21,0,0,0-.09-.26A5.87,5.87,0,0,1,4,11.74,4.81,4.81,0,0,1,3.25,9,5,5,0,0,1,4.51,5.9,6.8,6.8,0,0,1,7.89,3.8,8.45,8.45,0,0,1,10.07,3.52ZM10,12.29a5.05,5.05,0,0,0,1.55-.22,4,4,0,0,0,1.88-1.16,2.44,2.44,0,0,0,.07-3.27,3.28,3.28,0,0,0-.94-.8,4.78,4.78,0,0,0-2.11-.65,5,5,0,0,0-2.73.5,3.36,3.36,0,0,0-1.5,1.39,2.35,2.35,0,0,0,0,2.2,3.21,3.21,0,0,0,1.32,1.36A4.83,4.83,0,0,0,10,12.29Z"/></g></g></svg>