<svg xmlns="http://www.w3.org/2000/svg" viewBox="0 0 90 20"><defs><style>.cls-1{fill:#e6e6e6;}.cls-2{fill:#ff6675;}.cls-3{fill:#fefefe;}</style></defs><g id="Calque_2" data-name="Calque 2"><g id="Calque_1-2" data-name="Calque 1"><rect class="cls-1" width="90" height="20" rx="10"/><path class="cls-2" d="M50.17,9.25c0,1.56-1.2,2.53-3.12,2.53H45.6v1.93H43.94v-7h3.11C49,6.71,50.17,7.68,50.17,9.25Zm-1.69,0C48.48,8.48,48,8,47,8H45.6v2.43H47C48,10.46,48.48,10,48.48,9.25Z"/><path class="cls-2" d="M50.88,13l.57-1.22a4.26,4.26,0,0,0,2.36.73c1,0,1.39-.32,1.39-.75,0-1.31-4.17-.41-4.17-3,0-1.19,1-2.18,3-2.18a4.89,4.89,0,0,1,2.49.62L56,8.44a4.13,4.13,0,0,0-2-.55c-1,0-1.36.36-1.36.8,0,1.29,4.17.4,4.17,3,0,1.17-1,2.17-3.05,2.17A5.23,5.23,0,0,1,50.88,13Z"/><path class="cls-2" d="M61.28,11.23v2.48H59.62v-2.5l-2.78-4.5H58.6l1.92,3.11,1.92-3.11h1.63Z"/><circle class="cls-2" cx="10" cy="10" r="10"/><path class="cls-3" d="M15,14.59a.78.78,0,0,1-.24.2A7,7,0,0,1,11.9,16a8.78,8.78,0,0,1-1.7.1A6.89,6.89,0,0,1,6.58,14.9a5.58,5.58,0,0,1-2.33-3.45,6.17,6.17,0,0,1-.14-1.82,6.23,6.23,0,0,1,.91-3A5.63,5.63,0,0,1,8.14,4.28,6.31,6.31,0,0,1,10.46,4a5.6,5.6,0,0,1,3.28,1.19A4.73,4.73,0,0,1,15.3,7.41a4.87,4.87,0,0,1-.29,3.9,3.64,3.64,0,0,1-.86,1A4.23,4.23,0,0,1,12,13.47a3.65,3.65,0,0,1-3.26-.89,3.15,3.15,0,0,1-1-2A3.1,3.1,0,0,1,7.82,9.1,2.64,2.64,0,0,1,9.89,7.32a2.37,2.37,0,0,1,1.8.28,2.2,2.2,0,0,1,1,1.61,1.72,1.72,0,0,1-1.34,1.84,1.68,1.68,0,0,1-.74,0,1.26,1.26,0,0,1-.94-1,1.25,1.25,0,0,1,.05-.54.15.15,0,0,1,.2-.13.17.17,0,0,1,.13.21,1,1,0,0,0,0,.25.76.76,0,0,0,.94.66h0a1,1,0,0,0,.63-1.54,1.33,1.33,0,0,0-.92-.62A1.52,1.52,0,0,0,9,9.23a1.79,1.79,0,0,0,.33,2,2.28,2.28,0,0,0,2.86.47,2.68,2.68,0,0,0,1.43-2.07,3,3,0,0,0-.75-2.45A3.44,3.44,0,0,0,10.8,6.05,4,4,0,0,0,6.32,8.57,4.57,4.57,0,0,0,6,10.88,4.92,4.92,0,0,0,7.52,14a5.17,5.17,0,0,0,2.75,1.41,7,7,0,0,0,4.54-.73.3.3,0,0,1,.2-.08Z"/></g></g></svg>