<svg xmlns="http://www.w3.org/2000/svg" viewBox="0 0 90 20"><defs><style>.cls-1{fill:#e6e6e6;}.cls-2{fill:#c8b686;}.cls-3{fill:#fff;fill-rule:evenodd;}</style></defs><g id="Calque_2" data-name="Calque 2"><g id="Calque_1-2" data-name="Calque 1"><rect class="cls-1" width="90" height="20" rx="10"/><path class="cls-2" d="M39.5,13.71l-1.39-2H36.58v2H34.92v-7H38c1.92,0,3.12,1,3.12,2.54a2.28,2.28,0,0,1-1.48,2.21l1.61,2.25ZM37.94,8H36.58v2.44h1.36c1,0,1.52-.46,1.52-1.22S39,8,37.94,8Z"/><path class="cls-2" d="M42,10.21a3.68,3.68,0,0,1,3.93-3.62,3.63,3.63,0,1,1,0,7.24A3.68,3.68,0,0,1,42,10.21Zm6.18,0a2.25,2.25,0,0,0-4.49,0,2.25,2.25,0,0,0,4.49,0Z"/><path class="cls-2" d="M50.66,10.21a3.64,3.64,0,0,1,3.89-3.62,3.77,3.77,0,0,1,3,1.24l-1.07,1A2.34,2.34,0,0,0,54.63,8a2.17,2.17,0,0,0-2.29,2.24,2.17,2.17,0,0,0,2.29,2.24,2.32,2.32,0,0,0,1.81-.83l1.07,1a3.75,3.75,0,0,1-3,1.25A3.64,3.64,0,0,1,50.66,10.21Z"/><path class="cls-2" d="M65.2,6.71v7H63.54V10.84H60.28v2.87H58.62v-7h1.66V9.47h3.26V6.71Z"/><path class="cls-2" d="M72.46,12.41v1.3H66.9v-7h5.43V8H68.55V9.53h3.33v1.26H68.55v1.62Z"/><circle class="cls-2" cx="10" cy="10" r="10"/><path class="cls-3" d="M13.78,9.71h0l.89-5.16H15l2,6.32h0L15.48,12h0ZM3.05,13.13h0l3,1h0l6.77-4.67h0l.73-4.87h-6L3.05,10h0Zm4.3,1.25,3.31,1.08h0l3.94-2.83h0l-1.47-2.2h0Z"/></g></g></svg>