<svg xmlns="http://www.w3.org/2000/svg" viewBox="0 0 90 20"><defs><style>.cls-1{fill:#e6e6e6;}.cls-2{fill:#e87236;}.cls-3{fill:#fff;fill-rule:evenodd;}</style></defs><g id="Calque_2" data-name="Calque 2"><g id="Calque_1-2" data-name="Calque 1"><rect class="cls-1" width="90" height="20" rx="10"/><path class="cls-2" d="M43.1,13l.56-1.22a4.32,4.32,0,0,0,2.37.73c1,0,1.38-.32,1.38-.75,0-1.31-4.17-.41-4.17-3,0-1.19,1-2.18,3-2.18a4.92,4.92,0,0,1,2.49.62l-.52,1.23a4.1,4.1,0,0,0-2-.55c-1,0-1.36.36-1.36.8,0,1.29,4.17.4,4.17,3,0,1.17-1,2.17-3,2.17A5.18,5.18,0,0,1,43.1,13Z"/><path class="cls-2" d="M49.75,10.21a3.94,3.94,0,1,1,3.93,3.62A3.67,3.67,0,0,1,49.75,10.21Zm6.17,0a2.25,2.25,0,0,0-4.49,0,2.25,2.25,0,0,0,4.49,0Z"/><path class="cls-2" d="M58.85,6.71h1.66v5.68h3.6v1.32H58.85Z"/><circle class="cls-2" cx="10" cy="10" r="10"/><path class="cls-3" d="M6.34,13.8h0L9.64,5.34h4.21l3.26,8.46H6.34Zm-3.93,0h0L5,7.25H7.11L4.64,13.84H2.41Z"/></g></g></svg>