<svg xmlns="http://www.w3.org/2000/svg" viewBox="0 0 90 20"><defs><style>.cls-1{fill:#e6e6e6;}.cls-2{fill:#4c6ab2;}.cls-3{fill:#fefefe;}</style></defs><g id="Calque_2" data-name="Calque 2"><g id="Calque_1-2" data-name="Calque 1"><rect class="cls-1" width="90" height="20" rx="10"/><path class="cls-2" d="M29.29,13l.57-1.22a4.29,4.29,0,0,0,2.37.73c1,0,1.38-.32,1.38-.75,0-1.31-4.17-.41-4.17-3,0-1.19,1-2.18,3-2.18a4.93,4.93,0,0,1,2.5.62l-.52,1.23a4.1,4.1,0,0,0-2-.55c-1,0-1.36.36-1.36.8,0,1.29,4.17.4,4.17,3,0,1.17-1,2.17-3,2.17A5.24,5.24,0,0,1,29.29,13Z"/><path class="cls-2" d="M42.62,9.25c0,1.56-1.2,2.53-3.11,2.53H38.06v1.93H36.4v-7h3.11C41.42,6.71,42.62,7.68,42.62,9.25Zm-1.68,0c0-.77-.51-1.22-1.53-1.22H38.06v2.43h1.35C40.43,10.46,40.94,10,40.94,9.25Z"/><path class="cls-2" d="M49.36,12.41v1.3H43.8v-7h5.42V8H45.45V9.53h3.33v1.26H45.45v1.62Z"/><path class="cls-2" d="M50.21,10.21A3.64,3.64,0,0,1,54.1,6.59a3.73,3.73,0,0,1,2.95,1.24L56,8.79A2.34,2.34,0,0,0,54.18,8a2.17,2.17,0,0,0-2.29,2.24,2.17,2.17,0,0,0,2.29,2.24A2.32,2.32,0,0,0,56,11.62l1.06,1a3.71,3.71,0,0,1-3,1.25A3.64,3.64,0,0,1,50.21,10.21Z"/><path class="cls-2" d="M59.58,8H57.29V6.71h6.25V8H61.25v5.68H59.58Z"/><path class="cls-2" d="M69,13.71l-1.38-2H66.09v2H64.43v-7h3.11c1.92,0,3.12,1,3.12,2.54a2.28,2.28,0,0,1-1.48,2.21l1.61,2.25ZM67.45,8H66.09v2.44h1.36c1,0,1.52-.46,1.52-1.22S68.46,8,67.45,8Z"/><path class="cls-2" d="M77.52,12.41v1.3H72v-7h5.43V8H73.62V9.53H77v1.26H73.62v1.62Z"/><circle class="cls-2" cx="10" cy="10" r="10"/><path class="cls-3" d="M15.35,15.6l-.22-.12-.08-.05a1.84,1.84,0,0,1-.51-.45.68.68,0,0,1-.09-.8,1.06,1.06,0,0,1,.16-.21,6.08,6.08,0,0,0,1.32-6.09A6.36,6.36,0,0,0,9.08,3.49a6,6,0,0,0-3.55,1.6A6.15,6.15,0,0,0,3.59,11.2a6.49,6.49,0,0,0,4.2,4.59,13,13,0,0,0,2,.48,8.17,8.17,0,0,0,1.4.1h.78A10.38,10.38,0,0,0,13,16.32a7.35,7.35,0,0,0,2.26-.61l.07,0C15.41,15.65,15.4,15.63,15.35,15.6ZM9,9.15A1.43,1.43,0,1,1,6.65,7.84l.11-.08c.08,0,.1,0,.11,0A1.52,1.52,0,0,0,7,8.36,1.4,1.4,0,0,0,8.81,9C9,8.93,9,9,9,9.15Zm1.72.06s0-.09,0-.13,0-.13.12-.08a1.47,1.47,0,0,0,1,.06,1.42,1.42,0,0,0,1-1.2s0-.11,0-.13.09,0,.13.07a1.41,1.41,0,0,1,.5,1.58,1.4,1.4,0,0,1-1.36,1A1.42,1.42,0,0,1,10.69,9.21Z"/></g></g></svg>