<svg xmlns="http://www.w3.org/2000/svg" viewBox="0 0 90 20"><defs><style>.cls-1{fill:#e6e6e6;}.cls-2{fill:#5b5466;}.cls-3{fill:#fff;fill-rule:evenodd;}</style></defs><g id="Calque_2" data-name="Calque 2"><g id="Calque_1-2" data-name="Calque 1"><rect class="cls-1" width="90" height="20" rx="10"/><path class="cls-2" d="M27.26,8H25V6.71h6.25V8H28.92v5.68H27.26Z"/><path class="cls-2" d="M37.66,12.41v1.3H32.1v-7h5.43V8H33.75V9.53h3.34v1.26H33.75v1.62ZM35.14,6.14H33.89l1.38-1.43H37Z"/><path class="cls-2" d="M45.56,6.71v7H44.2L40.62,9.46v4.25H39v-7h1.38L43.92,11V6.71Z"/><path class="cls-2" d="M52.82,12.41v1.3H47.26v-7h5.43V8H48.91V9.53h3.34v1.26H48.91v1.62Z"/><path class="cls-2" d="M60.72,11.8c0,1.21-1,1.91-2.87,1.91H54.14v-7h3.51c1.79,0,2.72.73,2.72,1.82a1.67,1.67,0,0,1-1,1.54A1.73,1.73,0,0,1,60.72,11.8ZM55.79,7.93V9.58h1.65c.81,0,1.25-.28,1.25-.83s-.44-.82-1.25-.82Zm3.26,3.7c0-.59-.46-.87-1.32-.87H55.79v1.73h1.94C58.59,12.49,59.05,12.23,59.05,11.63Z"/><path class="cls-2" d="M66.55,13.71l-1.38-2H63.64v2H62v-7h3.11c1.92,0,3.12,1,3.12,2.54a2.28,2.28,0,0,1-1.48,2.21l1.61,2.25ZM65,8H63.64v2.44H65c1,0,1.52-.46,1.52-1.22S66,8,65,8Z"/><path class="cls-2" d="M75.07,12.41v1.3H69.52v-7h5.42V8H71.17V9.53H74.5v1.26H71.17v1.62Z"/><path class="cls-2" d="M75.83,13l.56-1.22a4.32,4.32,0,0,0,2.37.73c1,0,1.39-.32,1.39-.75,0-1.31-4.18-.41-4.18-3,0-1.19,1-2.18,3-2.18a4.92,4.92,0,0,1,2.49.62L81,8.44a4.16,4.16,0,0,0-2-.55c-1,0-1.37.36-1.37.8,0,1.29,4.18.4,4.18,3,0,1.17-1,2.17-3,2.17A5.18,5.18,0,0,1,75.83,13Z"/><circle class="cls-2" cx="10" cy="10" r="10"/><path class="cls-3" d="M8.35,15.12a6.54,6.54,0,0,0,.89.06c3.24,0,5.86-2.29,5.86-5.1S12.48,5,9.24,5C9,5,8.81,5,8.6,5a6,6,0,0,1-.25,10.12ZM10,16.36A6.36,6.36,0,1,0,3.64,10,6.36,6.36,0,0,0,10,16.36Z"/></g></g></svg>