<svg xmlns="http://www.w3.org/2000/svg" viewBox="0 0 90 20"><defs><style>.cls-1{fill:#e6e6e6;}.cls-2{fill:#89aae3;}.cls-3{fill:#fefefe;}</style></defs><g id="Calque_2" data-name="Calque 2"><g id="Calque_1-2" data-name="Calque 1"><rect class="cls-1" width="90" height="20" rx="10"/><path class="cls-2" d="M50.13,6.71l-3.11,7H45.38l-3.1-7h1.8l2.18,5,2.21-5Z"/><path class="cls-2" d="M50.18,10.21a3.94,3.94,0,1,1,3.93,3.62A3.68,3.68,0,0,1,50.18,10.21Zm6.18,0a2.25,2.25,0,0,0-4.49,0,2.25,2.25,0,0,0,4.49,0Z"/><path class="cls-2" d="M59.29,6.71H61v5.68h3.6v1.32H59.29Z"/><circle class="cls-2" cx="10" cy="10" r="10"/><path class="cls-3" d="M15.05,9.5a.36.36,0,0,1-.08.2,3.76,3.76,0,0,1-3.15,1.94H11s-.07,0-.07,0,0,.06.05.07a7.62,7.62,0,0,0,.92.21,3.88,3.88,0,0,0,1.36,0,3,3,0,0,0,1.22-.62c.06,0,.1-.12.18-.11l-.09.18a2.68,2.68,0,0,1-2.09,1.38,6.28,6.28,0,0,1-.75,0h-.17s-.05,0,0,0a.07.07,0,0,0,0,0l.13.05c.1,0,.21.05.31.09s.11,0,.06.14a4.4,4.4,0,0,1-.69,1.08,4.48,4.48,0,0,1-2.71,1.55,4.6,4.6,0,0,1-1.83-9,4.83,4.83,0,0,1,1.08-.12c.71,0,1.43,0,2.14,0a13.57,13.57,0,0,0,3.74-.58,5,5,0,0,0,1-.44,4.28,4.28,0,0,0,1.36-1.25l.46-.66s0,0,.06,0,0,.05,0,.07a8,8,0,0,1-1.08,3.82,5,5,0,0,1-3,2.3,5,5,0,0,1-1,.14A6.69,6.69,0,0,1,10,9.93H10s-.05,0-.05,0,0,0,0,0L10,10a5.25,5.25,0,0,0,2.53.45,5.68,5.68,0,0,0,1.63-.37,2.24,2.24,0,0,0,.8-.53s0,0,.08-.07Z"/></g></g></svg>